<svg width="520" height="395" viewBox="0 0 520 395" fill="none" xmlns="http://www.w3.org/2000/svg">
<path opacity="0.6" d="M302.131 69.5496C268.794 68.3301 237.019 57.0018 206.722 44.6102C176.426 32.2187 146.398 18.4866 113.842 11.9205C92.9099 7.69252 68.9716 7.09788 52.1094 18.9099C35.8793 30.2735 30.6368 49.8914 27.8168 68.0933C25.6959 81.79 24.4655 96.2023 30.2633 109.027C34.2993 117.927 41.4617 125.41 46.4169 133.936C63.6525 163.603 51.4679 200.188 32.7864 229.179C24.025 242.785 13.8608 255.731 7.10061 270.198C0.340429 284.666 -2.7907 301.24 3.12685 315.995C8.99174 330.609 22.9621 341.605 38.1007 349.33C68.8471 365.007 105.075 369.492 140.404 372.062C218.605 377.691 297.228 375.252 375.636 372.813C404.654 371.906 433.801 370.994 462.345 366.262C478.197 363.637 494.566 359.474 506.076 349.426C520.683 336.666 524.307 315.068 514.516 299.068C498.095 272.239 452.693 265.572 441.212 236.778C434.897 220.929 441.385 203.272 450.567 188.572C470.259 157.042 503.275 129.376 505.013 93.33C506.21 68.572 490.339 43.7838 465.797 32.0675C440.078 19.7767 404.41 21.3288 385.436 41.6421C365.898 62.5702 331.561 70.623 302.131 69.5496Z" fill="#587EEC"/>
<path fill-rule="evenodd" clip-rule="evenodd" d="M57.4576 278.156C61.8943 281.012 66.0728 284.289 69.941 287.946L69.9471 287.951C78.0954 295.784 83.6048 306.179 85.6588 317.574C88.1007 330.653 95.8017 342.395 102.959 350.908C106.531 355.156 109.949 358.579 112.473 360.939C113.734 362.119 114.771 363.032 115.491 363.648C115.851 363.956 116.131 364.191 116.321 364.347C116.376 364.393 116.424 364.432 116.464 364.464C116.492 364.487 116.516 364.506 116.535 364.522L116.588 364.565L116.601 364.575L116.604 364.577C116.604 364.577 116.604 364.578 115.982 365.36C115.359 366.143 115.359 366.142 115.358 366.142L115.357 366.141L115.337 366.125L115.277 366.076C115.225 366.034 115.148 365.972 115.049 365.89C114.85 365.726 114.56 365.484 114.19 365.167C113.45 364.534 112.391 363.601 111.107 362.4C108.538 359.998 105.062 356.517 101.428 352.195C94.1768 343.57 86.2253 331.51 83.6921 317.938L83.691 317.931C81.7103 306.94 76.3993 296.929 68.564 289.396C64.7857 285.825 60.7057 282.626 56.375 279.838L57.4576 278.156Z" fill="#9AB1F3"/>
<path d="M53.6942 262.206C56.0018 265.492 57.0455 279.415 57.0455 279.415C57.0455 279.415 44.7077 274.301 42.3953 271.02C41.2849 269.443 40.8151 267.466 41.0894 265.525C41.3637 263.583 42.3596 261.836 43.8579 260.667C45.3562 259.498 47.2343 259.004 49.079 259.292C50.9236 259.581 52.5838 260.629 53.6942 262.206Z" fill="#587EEC"/>
<path d="M75.8229 273.131C76.0623 277.208 69.7569 289.494 69.7569 289.494C69.7569 289.494 62.0344 278.135 61.7903 274.059C61.6974 272.115 62.3358 270.211 63.5673 268.76C64.7987 267.308 66.524 266.426 68.3692 266.304C70.2144 266.182 72.0309 266.83 73.4252 268.108C74.8195 269.386 75.6792 271.191 75.8181 273.131H75.8229Z" fill="#587EEC"/>
<path d="M97.2715 304.536C95.5288 308.185 84.1868 315.441 84.1868 315.441C84.1868 315.441 82.9756 301.533 84.7183 297.884C85.5761 296.169 87.0397 294.876 88.7939 294.284C90.5482 293.693 92.4529 293.85 94.0982 294.722C95.7435 295.594 96.9979 297.111 97.5913 298.946C98.1848 300.782 98.07 302.789 97.2715 304.536Z" fill="#587EEC"/>
<path d="M108.422 332.131C107.287 336.037 97.2761 345.203 97.2761 345.203C97.2761 345.203 93.8434 331.713 94.978 327.802C95.5234 325.926 96.7546 324.354 98.4008 323.434C100.047 322.513 101.973 322.318 103.756 322.892C105.539 323.466 107.032 324.762 107.907 326.494C108.782 328.227 108.967 330.255 108.422 332.131Z" fill="#587EEC"/>
<path d="M58.343 299.371C62.1731 299.915 74.2811 294.16 74.2811 294.16C74.2811 294.16 64.0643 285.251 60.215 284.707C58.3675 284.445 56.497 284.967 55.0151 286.158C53.5332 287.348 52.5612 289.109 52.3129 291.054C52.0647 292.998 52.5605 294.967 53.6914 296.527C54.8223 298.087 56.4955 299.11 58.343 299.371Z" fill="#587EEC"/>
<path d="M71.7724 331.476C75.6025 330.786 85.4986 321.488 85.4986 321.488C85.4986 321.488 73.2135 316.207 69.3881 316.897C68.4723 317.055 67.5952 317.403 66.8076 317.92C66.0199 318.436 65.3373 319.112 64.7991 319.908C64.2609 320.704 63.8778 321.604 63.6719 322.556C63.466 323.509 63.4414 324.495 63.5994 325.458C63.7575 326.42 64.0951 327.34 64.5928 328.165C65.0905 328.989 65.7385 329.702 66.4992 330.261C67.26 330.821 68.1185 331.216 69.0252 331.425C69.9319 331.633 70.8688 331.651 71.782 331.476H71.7724Z" fill="#587EEC"/>
<path d="M88.8883 360.8C92.7711 360.8 104.022 353.397 104.022 353.397C104.022 353.397 92.7663 346.004 88.8835 346.004C87.0195 346.004 85.2318 346.784 83.9138 348.171C82.5957 349.558 81.8552 351.44 81.8552 353.402C81.8552 355.364 82.5957 357.245 83.9138 358.633C85.2318 360.02 87.0195 360.8 88.8835 360.8H88.8883Z" fill="#587EEC"/>
<path fill-rule="evenodd" clip-rule="evenodd" d="M446.205 111.413C444.112 116.424 441.586 121.222 438.658 125.747L438.653 125.754C432.363 135.289 423.3 142.431 412.814 146.097C400.837 150.366 390.805 159.944 383.732 168.548C380.205 172.838 377.435 176.86 375.547 179.808C374.603 181.281 373.881 182.485 373.396 183.319C373.153 183.735 372.97 184.059 372.848 184.278C372.787 184.387 372.741 184.47 372.711 184.525L372.678 184.587L372.67 184.602L372.668 184.605C372.663 184.602 372.598 184.568 371.787 184.133C370.905 183.66 370.905 183.66 370.906 183.659L370.909 183.653L370.919 183.635L370.956 183.566C370.989 183.506 371.038 183.418 371.102 183.304C371.229 183.075 371.418 182.74 371.667 182.312C372.165 181.457 372.902 180.229 373.863 178.729C375.783 175.731 378.599 171.642 382.187 167.278C389.345 158.572 399.66 148.661 412.146 144.212L412.152 144.21C422.21 140.694 430.924 133.837 436.981 124.657C439.843 120.234 442.312 115.543 444.359 110.643L446.205 111.413Z" fill="#9AB1F3"/>
<path d="M460.641 105.485C457.854 108.327 444.885 111.27 444.885 111.27C444.885 111.27 448.068 97.7141 450.855 94.8669C452.2 93.5415 453.985 92.825 455.827 92.8716C457.669 92.9183 459.42 93.7243 460.703 95.1162C461.986 96.5081 462.698 98.3746 462.686 100.314C462.675 102.253 461.94 104.11 460.641 105.485Z" fill="#587EEC"/>
<path d="M453.306 129.991C449.476 130.787 437.09 125.838 437.09 125.838C437.09 125.838 446.761 116.264 450.567 115.483C451.481 115.269 452.427 115.25 453.348 115.426C454.269 115.603 455.147 115.971 455.931 116.509C456.715 117.048 457.389 117.746 457.913 118.562C458.437 119.378 458.801 120.297 458.984 121.263C459.166 122.229 459.163 123.225 458.975 124.19C458.787 125.155 458.418 126.071 457.889 126.884C457.36 127.697 456.683 128.391 455.895 128.924C455.108 129.458 454.228 129.82 453.306 129.991Z" fill="#587EEC"/>
<path d="M426.61 156.538C422.943 155.202 414.607 144.338 414.607 144.338C414.607 144.338 427.534 141.223 431.211 142.559C432.094 142.867 432.911 143.357 433.613 144.001C434.315 144.644 434.888 145.427 435.3 146.306C435.712 147.184 435.954 148.14 436.013 149.118C436.071 150.096 435.944 151.076 435.639 152.002C435.334 152.927 434.858 153.78 434.238 154.511C433.617 155.241 432.865 155.834 432.025 156.256C431.185 156.678 430.274 156.921 429.345 156.969C428.415 157.017 427.485 156.871 426.61 156.538Z" fill="#587EEC"/>
<path d="M402.078 171.837C398.248 171.172 388.309 161.925 388.309 161.925C388.309 161.925 400.56 156.553 404.386 157.218C406.227 157.537 407.872 158.612 408.96 160.208C410.048 161.804 410.489 163.789 410.186 165.727C409.883 167.665 408.861 169.397 407.345 170.541C405.829 171.686 403.943 172.151 402.102 171.832L402.078 171.837Z" fill="#587EEC"/>
<path d="M426.275 115.241C426.27 119.328 433.313 131.185 433.313 131.185C433.313 131.185 440.346 119.343 440.346 115.261C440.37 114.274 440.207 113.291 439.865 112.371C439.523 111.451 439.009 110.613 438.354 109.906C437.699 109.198 436.917 108.636 436.052 108.252C435.187 107.868 434.258 107.67 433.32 107.67C432.382 107.67 431.453 107.868 430.588 108.252C429.724 108.636 428.941 109.198 428.286 109.906C427.631 110.613 427.117 111.451 426.775 112.371C426.433 113.291 426.27 114.274 426.294 115.261L426.275 115.241Z" fill="#587EEC"/>
<path d="M397.822 133.513C398.98 137.414 409.054 146.509 409.054 146.509C409.054 146.509 412.405 132.994 411.237 129.094C410.631 127.287 409.383 125.798 407.755 124.94C406.127 124.082 404.246 123.923 402.508 124.496C400.771 125.069 399.313 126.329 398.44 128.011C397.568 129.693 397.35 131.665 397.831 133.513H397.822Z" fill="#587EEC"/>
<path d="M372.509 155.268C373.026 159.299 381.491 170.068 381.491 170.068C381.491 170.068 386.954 157.344 386.437 153.297C386.334 152.317 386.046 151.368 385.59 150.506C385.134 149.645 384.519 148.888 383.781 148.28C383.042 147.672 382.196 147.226 381.292 146.968C380.388 146.709 379.443 146.644 378.514 146.775C377.586 146.907 376.691 147.232 375.884 147.733C375.076 148.234 374.372 148.899 373.813 149.69C373.253 150.482 372.85 151.383 372.626 152.341C372.402 153.298 372.362 154.294 372.509 155.268Z" fill="#587EEC"/>
<path opacity="0.25" d="M460.641 105.485C457.854 108.327 444.885 111.27 444.885 111.27C444.885 111.27 448.068 97.7141 450.855 94.8669C452.2 93.5415 453.985 92.825 455.827 92.8716C457.669 92.9183 459.42 93.7243 460.703 95.1162C461.986 96.5081 462.698 98.3746 462.686 100.314C462.675 102.253 461.94 104.11 460.641 105.485Z" fill="black"/>
<path opacity="0.25" d="M453.306 129.991C449.476 130.787 437.09 125.838 437.09 125.838C437.09 125.838 446.761 116.264 450.567 115.483C451.481 115.269 452.427 115.25 453.348 115.426C454.269 115.603 455.147 115.971 455.931 116.509C456.715 117.048 457.389 117.746 457.913 118.562C458.437 119.378 458.801 120.297 458.984 121.263C459.166 122.229 459.163 123.225 458.975 124.19C458.787 125.155 458.418 126.071 457.889 126.884C457.36 127.697 456.683 128.391 455.895 128.924C455.108 129.458 454.228 129.82 453.306 129.991Z" fill="black"/>
<path opacity="0.25" d="M426.61 156.538C422.943 155.202 414.607 144.338 414.607 144.338C414.607 144.338 427.534 141.223 431.211 142.559C432.094 142.867 432.911 143.357 433.613 144.001C434.315 144.644 434.888 145.427 435.3 146.306C435.712 147.184 435.954 148.14 436.013 149.118C436.071 150.096 435.944 151.076 435.639 152.002C435.334 152.927 434.858 153.78 434.238 154.511C433.617 155.241 432.865 155.834 432.025 156.256C431.185 156.678 430.274 156.921 429.345 156.969C428.415 157.017 427.485 156.871 426.61 156.538Z" fill="black"/>
<path opacity="0.25" d="M402.078 171.837C398.248 171.172 388.309 161.925 388.309 161.925C388.309 161.925 400.56 156.553 404.386 157.218C406.227 157.537 407.872 158.612 408.96 160.208C410.048 161.804 410.489 163.789 410.186 165.727C409.883 167.665 408.861 169.397 407.345 170.541C405.829 171.686 403.943 172.151 402.102 171.832L402.078 171.837Z" fill="black"/>
<path opacity="0.25" d="M426.275 115.241C426.27 119.328 433.313 131.185 433.313 131.185C433.313 131.185 440.346 119.343 440.346 115.261C440.37 114.274 440.207 113.291 439.865 112.371C439.523 111.451 439.009 110.613 438.354 109.906C437.699 109.198 436.917 108.636 436.052 108.252C435.187 107.868 434.258 107.67 433.32 107.67C432.382 107.67 431.453 107.868 430.588 108.252C429.724 108.636 428.941 109.198 428.286 109.906C427.631 110.613 427.117 111.451 426.775 112.371C426.433 113.291 426.27 114.274 426.294 115.261L426.275 115.241Z" fill="black"/>
<path opacity="0.25" d="M397.822 133.513C398.98 137.414 409.054 146.509 409.054 146.509C409.054 146.509 412.405 132.994 411.237 129.094C410.631 127.287 409.383 125.798 407.755 124.94C406.127 124.082 404.246 123.923 402.508 124.496C400.771 125.069 399.313 126.329 398.44 128.011C397.568 129.693 397.35 131.665 397.831 133.513H397.822Z" fill="black"/>
<path opacity="0.25" d="M372.509 155.268C373.026 159.299 381.491 170.068 381.491 170.068C381.491 170.068 386.954 157.344 386.437 153.297C386.334 152.317 386.046 151.368 385.59 150.506C385.134 149.645 384.519 148.888 383.781 148.28C383.042 147.672 382.196 147.226 381.292 146.968C380.388 146.709 379.443 146.644 378.514 146.775C377.586 146.907 376.691 147.232 375.884 147.733C375.076 148.234 374.372 148.899 373.813 149.69C373.253 150.482 372.85 151.383 372.626 152.341C372.402 153.298 372.362 154.294 372.509 155.268Z" fill="black"/>
<path fill-rule="evenodd" clip-rule="evenodd" d="M412.763 85.3764C412.772 90.843 412.304 96.299 411.365 101.676L411.364 101.683C409.285 113.073 403.754 123.455 395.59 131.27C386.283 140.287 380.801 153.333 377.648 164.217C376.076 169.646 375.092 174.506 374.501 178.007C374.206 179.758 374.009 181.167 373.886 182.136C373.825 182.621 373.782 182.996 373.755 183.248C373.741 183.374 373.731 183.47 373.725 183.533L373.718 183.604L373.716 183.62L373.716 183.624L373.711 183.624C373.688 183.622 373.55 183.61 372.72 183.533C371.724 183.441 371.724 183.441 371.724 183.44L371.725 183.433L371.727 183.412L371.735 183.334C371.742 183.265 371.752 183.164 371.766 183.032C371.795 182.769 371.839 182.382 371.902 181.885C372.028 180.891 372.229 179.455 372.529 177.675C373.129 174.116 374.129 169.179 375.727 163.661C378.916 152.653 384.521 139.208 394.201 129.832L394.205 129.828C402.057 122.313 407.39 112.314 409.395 101.328C410.314 96.0673 410.772 90.7288 410.763 85.3797L412.763 85.3764Z" fill="#9AB1F3"/>
<path d="M423.666 73.7071C422.229 77.4966 411.486 85.7207 411.486 85.7207C411.486 85.7207 409.178 71.9685 410.629 68.179C411.327 66.3594 412.684 64.9063 414.4 64.1394C416.116 63.3724 418.052 63.3546 419.78 64.0896C421.509 64.8247 422.89 66.2525 423.618 68.059C424.347 69.8654 424.364 71.9026 423.666 73.7222V73.7071Z" fill="#587EEC"/>
<path d="M426.399 99.2663C423.225 101.615 409.978 102.386 409.978 102.386C409.978 102.386 415.139 89.5153 418.313 87.167C419.066 86.574 419.924 86.146 420.837 85.9083C421.75 85.6707 422.698 85.6283 423.627 85.7835C424.556 85.9388 425.445 86.2886 426.243 86.8123C427.041 87.3359 427.731 88.0227 428.272 88.8321C428.813 89.6414 429.195 90.5569 429.394 91.5241C429.593 92.4914 429.605 93.4909 429.43 94.4633C429.256 95.4358 428.898 96.3615 428.377 97.1857C427.856 98.0098 427.184 98.7156 426.399 99.2612V99.2663Z" fill="#587EEC"/>
<path d="M412.199 134.934C408.331 135.277 396.525 128.887 396.525 128.887C396.525 128.887 407.153 120.522 411.022 120.179C412.879 120.015 414.723 120.634 416.147 121.9C417.571 123.167 418.459 124.977 418.615 126.932C418.771 128.887 418.183 130.828 416.98 132.326C415.777 133.825 414.057 134.76 412.199 134.924V134.934Z" fill="#587EEC"/>
<path d="M395.677 159.37C391.919 160.378 379.26 156.21 379.26 156.21C379.26 156.21 388.39 146.076 392.149 145.048C393.953 144.556 395.869 144.838 397.476 145.832C399.083 146.827 400.248 148.453 400.716 150.352C401.184 152.251 400.916 154.268 399.971 155.959C399.026 157.65 397.481 158.877 395.677 159.37Z" fill="#587EEC"/>
<path d="M396.012 97.311C397.583 101.045 408.566 108.901 408.566 108.901C408.566 108.901 410.433 95.0735 408.862 91.3394C408.08 89.5924 406.679 88.2367 404.96 87.5622C403.24 86.8876 401.338 86.9476 399.66 87.7293C397.982 88.5111 396.661 89.9526 395.98 91.7458C395.298 93.539 395.31 95.5418 396.012 97.3261V97.311Z" fill="#587EEC"/>
<path d="M377.034 126.146C379.595 129.215 392.302 133.236 392.302 133.236C392.302 133.236 390.157 119.454 387.595 116.385C386.991 115.639 386.252 115.028 385.42 114.585C384.589 114.143 383.683 113.879 382.754 113.809C381.825 113.738 380.892 113.863 380.01 114.175C379.127 114.488 378.312 114.982 377.612 115.629C376.913 116.275 376.342 117.062 375.934 117.943C375.525 118.824 375.287 119.781 375.233 120.76C375.179 121.738 375.311 122.718 375.62 123.643C375.929 124.568 376.41 125.418 377.034 126.146Z" fill="#587EEC"/>
<path d="M362.245 156.845C364.275 160.322 376.153 166.546 376.153 166.546C376.153 166.546 376.254 152.582 374.238 149.1C373.235 147.492 371.676 146.359 369.892 145.94C368.108 145.522 366.24 145.852 364.683 146.859C363.126 147.867 362.003 149.473 361.552 151.337C361.102 153.201 361.359 155.177 362.269 156.845H362.245Z" fill="#587EEC"/>
<path d="M348.303 48.0723C349.098 45.0034 350.055 41.9194 350.726 38.8101C349.921 41.9194 348.959 45.0135 348.303 48.0723Z" fill="url(#paint0_linear_4_6)"/>
<path d="M344.741 77.6327C344.674 77.5117 344.626 77.3908 344.573 77.2799C344.573 77.2295 344.526 77.1892 344.506 77.1388C344.402 77.1906 344.295 77.2361 344.186 77.2749C343.975 77.3606 343.76 77.4412 343.539 77.5067C343.319 77.5722 343.228 77.6075 343.061 77.6478C342.922 77.6982 342.779 77.7369 342.634 77.7637L342.673 77.8544C342.85 77.8141 343.022 77.7788 343.199 77.7284L343.247 78.3533C343.448 78.3533 343.635 78.3231 343.817 78.3231C343.903 78.3181 343.989 78.3181 344.076 78.3231C344.449 78.3231 344.775 78.3231 345.033 78.3231C344.932 78.0963 344.827 77.8594 344.741 77.6327ZM441.931 240.467C439.68 237.277 435.19 203.04 435.19 203.04C435.19 203.04 426.356 178.695 428.764 168.98C431.173 159.264 422.186 134.405 422.186 134.405C422.186 134.405 416.25 131.689 415.929 127.658C415.929 127.658 391.689 119.595 390.554 113.548C389.635 108.589 374.602 105.031 369.201 103.907C367.554 96.9129 365.898 90.3871 364.677 86.8243C364.346 85.7157 364.035 84.7582 363.748 84.0023C361.685 78.4591 355.307 77.9552 350.682 78.3986C350.482 77.4539 350.11 76.5589 349.586 75.7631C349.51 75.4895 349.358 75.2458 349.15 75.0626C349.051 74.9736 348.945 74.8927 348.834 74.8208C348.751 74.6574 348.641 74.5108 348.509 74.3874C348.378 74.2628 348.233 74.1546 348.078 74.0649C347.967 74.0015 347.852 73.946 347.733 73.8986C347.456 73.7874 347.169 73.7047 346.876 73.6516C346.535 73.5778 346.19 73.5307 345.842 73.5106C346.687 73.1215 347.441 72.5417 348.049 71.8123C348.463 71.3002 348.771 70.703 348.954 70.0586C349.106 69.5228 349.174 68.9646 349.155 68.4058C349.031 68.636 348.887 68.8537 348.724 69.0558C348.925 66.8234 347.805 64.5557 347.164 62.3334C346.386 59.4403 346.242 56.3993 346.742 53.4391C347.384 48.9743 348.973 44.4591 350.051 39.9137C350.053 39.8886 350.053 39.8632 350.051 39.8381C350.615 37.5808 350.965 35.2697 351.094 32.9393C351.281 28.2377 350.137 23.5461 348.298 19.2628C346.666 15.4682 344.257 11.7341 340.571 10.1921C337.832 9.02799 334.764 9.21444 331.814 9.02295C325.198 8.58957 318.888 6.14048 312.597 3.91312C306.306 1.68576 299.833 -0.340025 293.211 0.0479989C286.59 0.436023 279.777 3.79722 276.756 9.96529C275.799 11.8903 275.248 14.032 274.104 15.8411C271.959 19.2527 268.119 20.961 264.916 23.3143C261.713 25.6677 258.893 29.0087 257.735 32.9948C257.102 35.1423 257.013 37.4265 257.476 39.6214C257.58 40.1171 257.715 40.6052 257.878 41.0828C258.333 42.4143 259.042 43.6337 259.961 44.6657C260.655 45.4285 261.452 46.0789 262.326 46.5958C263.424 47.2366 264.6 47.718 265.821 48.0269C265.778 48.1781 265.735 48.3394 265.687 48.4956C265.61 48.7526 265.543 48.9995 265.472 49.2767C265.314 49.8965 265.165 50.5264 265.041 51.1614C265.036 51.2066 265.036 51.2522 265.041 51.2974C264.453 54.1637 264.157 57.088 264.16 60.0204C264.159 61.4072 264.226 62.7932 264.361 64.1728C266.276 84.6221 282.315 100.753 302.131 101.801C302.811 101.836 303.495 101.856 304.189 101.856C304.505 101.856 304.817 101.856 305.147 101.856C305.458 102.29 305.765 102.733 306.057 103.167C306.349 103.6 306.617 104.044 306.871 104.477L306.176 103.721L305.482 103.051C305.294 103.323 305.084 103.577 304.855 103.812C304.402 103.644 303.94 103.506 303.471 103.398C301.484 102.935 298.459 102.764 294.475 104.028C290.813 105.182 286.336 107.556 281.099 112.066L255.576 128.192L241.768 137.031L236.794 149.83C236.794 149.83 233.054 165.039 228.894 182.465C228.731 182.515 228.573 182.565 228.415 182.626C228.078 182.586 227.739 182.565 227.4 182.565C224.986 182.56 222.664 183.538 220.921 185.297C219.179 187.055 218.151 189.455 218.055 191.994C209.782 202.576 209.312 213.159 211.256 218.017C211.432 218.472 211.654 218.906 211.917 219.312C213.19 221.247 215.57 226.236 217.983 231.552C217.921 231.991 217.882 232.359 217.863 232.636C217.859 232.726 217.859 232.817 217.863 232.908C217.863 232.908 219.299 255.741 214.512 262.287C213.463 263.713 213.621 265.588 214.512 267.664C217.719 275.132 230.402 285.105 230.402 285.105C230.402 285.105 245.612 285.019 254.087 284.046C254.063 284.943 254.044 285.835 254.024 286.707C253.833 295.516 253.833 302.898 253.833 302.898L253.517 312.135C253.517 312.135 250.644 331.602 249.208 336.969C248.303 340.335 249.347 371.503 250.256 394.417H400.12C401.882 380.861 399.397 339.675 399.397 339.675C399.397 339.675 397.037 329.027 396.95 319.745C396.946 319.734 396.943 319.723 396.943 319.712C396.943 319.701 396.946 319.689 396.95 319.679C396.95 318.868 396.95 318.077 396.979 317.301L398.066 317.26L400.019 317.19H400.197C400.197 317.19 400.244 316.998 400.354 316.686C400.613 315.908 400.965 315.167 401.403 314.484C402.236 313.189 403.538 311.919 405.496 311.833C406.578 311.788 408.254 310.865 410.145 309.505C410.158 309.508 410.171 309.508 410.184 309.505C415.273 305.882 422 299.194 423.632 298.096C425.878 296.584 436.631 286.506 436.631 286.506C436.631 286.506 438.234 284.369 439.944 281.794L440.006 281.703C442.132 278.478 444.391 274.623 443.836 273.408C442.879 271.232 444.478 266.026 444.478 266.026C449.471 256.406 444.181 243.657 441.931 240.467ZM349.352 85.4688C349.397 85.6192 349.426 85.7748 349.438 85.9324C349.318 85.7661 349.198 85.5897 349.079 85.4284L348.964 85.2672L348.882 85.1462L349.064 84.8842C349.064 84.8842 349.064 84.8842 349.064 84.9195C349.191 85.0828 349.288 85.2689 349.352 85.4688ZM347.743 81.004C347.221 81.1148 346.809 81.2156 346.541 81.2912C346.201 80.6562 345.876 80.0213 345.584 79.3763C346.351 79.845 347.074 80.39 347.743 81.004ZM346.843 81.8002C346.841 81.7901 346.841 81.7799 346.843 81.7699L346.881 81.8002C347.077 81.9362 347.269 82.0672 347.446 82.2033C347.604 82.3242 347.748 82.4401 347.891 82.5611C347.796 82.7375 347.69 82.9189 347.585 83.065C347.417 82.7878 347.259 82.5208 347.106 82.2436C347.01 82.1328 346.924 81.9816 346.843 81.8002ZM343.97 75.5817C344.895 75.4856 345.827 75.4856 346.752 75.5817C346.881 75.5817 346.996 75.6069 347.111 75.627C347.37 75.6693 347.625 75.7385 347.872 75.8337C348.438 76.6668 348.786 77.6416 348.882 78.6607L348.624 78.701L348.37 78.7514C347.891 78.8371 347.413 78.9227 347.039 79.0034L346.56 79.1092C345.924 79.2553 345.555 79.3662 345.541 79.3712C345.478 79.2352 345.416 79.1092 345.349 78.9782C345.244 78.7615 345.134 78.5397 345.038 78.3231C344.942 78.1064 344.818 77.8594 344.717 77.6327C344.65 77.5117 344.602 77.3908 344.549 77.2799C344.549 77.2295 344.502 77.1892 344.482 77.1388C344.455 77.0854 344.431 77.0298 344.411 76.9725C344.119 76.3477 343.85 75.7228 343.592 75.108C343.563 75.0475 343.539 74.982 343.515 74.9215L343.879 74.8963V75.0274L343.97 75.5817ZM229.741 388.188C229.703 380.685 229.186 372.566 227.75 364.947C227.137 361.707 226.505 358.466 225.863 355.282C225.701 354.485 225.543 353.699 225.385 352.913L223.91 353.12H223.776C219.754 333.159 215.551 315.572 215.551 315.572C215.551 315.572 207.201 282.016 208.168 279.34C208.293 278.992 208.135 278.055 207.78 276.679C205.76 269.049 197.324 248.026 194.375 240.84C194.375 240.809 194.351 240.774 194.341 240.749C193.863 239.545 193.518 238.733 193.413 238.496L194.107 227.773L194.145 227.128L194.236 225.757L194.198 225.722L194.236 225.087C194.236 225.087 186.949 218.798 174.607 214.257C174.128 214.076 173.62 213.9 173.118 213.728C173.735 209.39 174.554 204.491 175.622 199.719C175.722 199.24 175.832 198.777 175.947 198.308C176.048 197.84 176.163 197.386 176.277 196.927C176.459 196.182 176.656 195.446 176.857 194.72C177.522 194.498 178.178 194.252 178.825 193.99L179.073 193.889C187.036 190.628 193.606 184.44 197.567 176.472C201.528 168.504 202.612 159.296 200.618 150.551C199.481 145.592 197.381 140.933 194.451 136.869C194.231 136.557 193.997 136.244 193.762 135.937C193.527 135.63 193.245 135.287 192.982 134.975C194.365 131.664 195.998 128.514 196.132 125.294C196.156 124.886 196.156 124.477 196.132 124.07V124.019C195.955 121.948 195.083 119.852 193.053 117.65C190.09 114.419 185.872 112.782 181.654 111.995C177.436 111.209 173.137 111.189 168.895 110.66C161.862 109.773 155.011 107.49 147.978 106.79C139.315 105.946 130.593 107.509 122.684 111.325C117.451 113.845 112.152 118.249 111.836 124.291C111.577 129.285 114.88 134.073 114.047 139.006C113.219 143.854 108.527 147.669 108.939 152.572C109.097 154.487 110.031 156.2 111.199 157.727C111.601 158.231 112.027 158.735 112.467 159.239C114.172 161.139 116.049 162.963 117.001 165.356C117.04 165.457 117.078 165.558 117.112 165.659C117.921 168.022 117.557 171.01 115.556 172.366C115.567 172.375 115.575 172.387 115.579 172.401C115.608 172.442 115.637 172.472 115.661 172.512C115.664 172.504 115.664 172.495 115.661 172.487C116.37 173.372 117.327 174 118.395 174.281L118.802 174.412C118.471 174.79 118.16 175.183 117.844 175.596L117.638 175.883C117.111 176.63 116.631 177.413 116.202 178.227C115.958 178.68 115.723 179.134 115.527 179.587C114.871 180.97 114.395 182.439 114.114 183.956C113.602 187.292 114.325 190.769 113.549 194.035C112.592 198.066 109.561 201.16 107.852 204.905C104.616 211.96 106.449 220.239 107.101 228.03C107.986 238.612 106.55 249.24 105.118 259.752C104.359 265.342 103.599 270.938 102.839 276.538C100.924 290.594 99.0094 304.65 97.0943 318.707C96.3953 323.857 95.567 329.289 92.3066 333.265H92.3402C92.3402 333.265 92.3402 333.295 92.3066 333.305C93.2854 333.756 94.3263 334.038 95.3899 334.142C99.6461 334.59 104.156 332.423 107.986 330.055C111.019 328.21 113.892 326.087 116.571 323.711C116.178 325.222 115.757 326.87 115.307 328.644C115.308 328.661 115.308 328.678 115.307 328.694C109.901 350.363 101.207 390.088 101.207 390.088C101.207 390.088 100.417 391.816 99.3924 394.391H234.404C232.825 392.376 231.355 390.446 230.206 388.889L229.741 388.188ZM129.775 187.826C129.808 187.766 129.832 187.711 129.866 187.655C129.866 187.816 129.866 187.973 129.866 188.124C129.866 188.275 129.866 188.411 129.866 188.552C129.866 188.693 129.866 188.678 129.866 188.749C129.866 188.819 129.866 188.749 129.866 188.749C129.866 188.955 129.823 189.162 129.789 189.369C129.789 189.369 129.789 189.394 129.789 189.414L130.268 189.6L130.823 189.842C134.105 191.206 137.427 192.441 140.791 193.546C141.136 193.662 141.486 193.773 141.835 193.879L141.907 194.504C141.993 195.144 142.074 195.794 142.151 196.444C142.151 196.444 142.151 196.474 142.151 196.494C142.366 198.293 142.577 200.087 142.764 201.841C142.764 201.841 133.974 198.313 134.084 203.67C134.079 203.766 134.079 203.862 134.084 203.957C134.074 204.085 134.074 204.213 134.084 204.34C134.165 208.513 135.405 210.987 135.654 212.257C135.639 212.309 135.613 212.358 135.578 212.398C135.365 212.884 135.292 213.426 135.367 213.955C135.359 214.857 135.426 215.757 135.568 216.646C135.309 216.812 135.056 216.979 134.802 217.15C134.61 217.276 134.428 217.417 134.242 217.558C133.067 213.27 131.531 209.101 129.65 205.101C128.334 202.249 126.854 199.276 126.869 196.146C126.869 195.945 126.869 195.738 126.893 195.532C126.946 194.625 127.11 193.729 127.381 192.866C127.491 192.538 127.611 192.216 127.745 191.898C128.058 191.144 128.408 190.407 128.793 189.691C129.042 189.217 129.306 188.749 129.559 188.275C129.641 188.134 129.717 187.988 129.794 187.847L129.775 187.826ZM344.741 77.6327C344.674 77.5117 344.626 77.3908 344.573 77.2799C344.573 77.2295 344.526 77.1892 344.506 77.1388C344.402 77.1906 344.295 77.2361 344.186 77.2749C343.975 77.3606 343.76 77.4412 343.539 77.5067C343.319 77.5722 343.228 77.6075 343.061 77.6478L342.634 77.7637L342.673 77.8544C342.85 77.8141 343.022 77.7788 343.199 77.7284L343.247 78.3533C343.448 78.3533 343.635 78.3231 343.817 78.3231H344.076C344.449 78.3231 344.775 78.3231 345.033 78.3231C344.932 78.0963 344.827 77.8594 344.741 77.6327Z" fill="url(#paint1_linear_4_6)"/>
<path d="M240.131 151.65L237.258 152.985C237.258 152.985 218.533 229.552 218.533 235.74C218.533 241.928 258.238 276.362 258.238 276.362L264.433 232.348C264.433 232.348 255.537 131.417 240.131 151.65Z" fill="#E8F5FF"/>
<path d="M327.223 127.295L310.634 118.184C309.704 114.014 308.056 110.06 305.769 106.518C303.342 102.829 300.115 99.2058 296.093 97.316C285.929 92.5187 339.087 67.3374 339.087 67.3374C339.924 70.3624 340.91 73.3396 342.041 76.2569C344.779 83.3724 349.323 92.5741 355.178 95.1945C365.132 99.6543 327.223 127.295 327.223 127.295Z" fill="#FFB0B1"/>
<path opacity="0.1" d="M342.041 76.2569C339.769 84.6649 335.046 92.1095 328.538 97.5393C322.029 102.969 314.065 106.11 305.769 106.518C303.342 102.829 300.115 99.2058 296.093 97.316C285.929 92.5186 339.087 67.3374 339.087 67.3374C339.924 70.3624 340.91 73.3396 342.041 76.2569Z" fill="black"/>
<path d="M343.534 63.5429C343.536 71.789 341.215 79.8505 336.864 86.7078C332.512 93.5651 326.327 98.9102 319.089 102.067C311.852 105.224 303.887 106.051 296.203 104.443C288.519 102.835 281.461 98.8645 275.92 93.0339C270.38 87.2034 266.607 79.7745 265.079 71.6869C263.55 63.5992 264.335 55.2161 267.333 47.5977C270.332 39.9794 275.409 33.4681 281.923 28.8873C288.438 24.3065 296.097 21.862 303.931 21.863C309.138 21.8377 314.298 22.8984 319.114 24.984C323.929 27.0695 328.305 30.1386 331.987 34.0139C335.669 37.8893 338.585 42.494 340.568 47.5624C342.55 52.6307 343.558 58.0621 343.534 63.5429Z" fill="#FFB0B1"/>
<path d="M349.251 121.943L338.45 148.47L328.923 166.077H298.425L289.53 142.004L293.135 117.04H316.427L331.465 116.148L336.544 114.364L339.819 116.319L349.251 121.943Z" fill="#575A89"/>
<path opacity="0.1" d="M345.531 86.5824C345.531 86.5824 352.267 88.0942 346.235 93.2997C340.202 98.5053 319.39 115.059 319.39 115.059C319.39 115.059 326.701 121.913 325.188 129.94L349.409 115.73L353.718 92.9923C353.718 92.9923 354.201 86.1591 345.531 86.5824Z" fill="black"/>
<path opacity="0.1" d="M324.154 115.059L308.747 117.735C308.747 117.735 311.926 130.107 310.337 133.619C310.289 133.728 310.249 133.841 310.217 133.957L303.931 151.841L308.642 165.886L324.949 142.478L319.39 133.619C319.39 133.619 325.265 125.425 328.76 122.583C332.255 119.741 324.154 115.059 324.154 115.059Z" fill="black"/>
<path d="M324.154 114.369L308.747 117.04C308.747 117.04 311.926 129.411 310.337 132.924C310.289 133.033 310.249 133.146 310.217 133.261L303.931 151.146L308.642 165.19L324.949 141.768L319.39 132.908C319.39 132.908 325.265 124.715 328.76 121.872C332.255 119.03 324.154 114.369 324.154 114.369Z" fill="#DCE6F2"/>
<path d="M346.177 85.247C346.177 85.247 352.914 86.7588 346.876 91.9643C340.839 97.1699 319.39 115.059 319.39 115.059C319.39 115.059 327.333 120.577 325.825 128.6L350.046 114.394L354.355 91.6569C354.355 91.6569 354.833 84.8237 346.177 85.247Z" fill="#575A89"/>
<path opacity="0.1" d="M306.828 108.095C306.828 108.095 308.297 110.988 314.785 116.203C314.785 116.203 303.984 122.25 308.116 130.752L291.593 126.216L289.051 117.856L306.828 108.095Z" fill="black"/>
<path d="M306.191 107.43C306.191 107.43 307.66 110.322 314.148 115.538C314.148 115.538 303.347 121.555 307.479 130.081L290.961 125.546L288.419 117.191L306.191 107.43Z" fill="#575A89"/>
<path opacity="0.1" d="M349.251 121.943L338.45 148.47L328.942 166.077H298.425L289.53 142.004L293.13 117.04H299.608C299.502 122.865 301.523 129.709 301.393 132.253C301.173 136.436 307.321 159.002 307.321 159.002C307.321 159.002 320.185 137.101 325.265 135.151C328.458 133.926 335.223 123.737 339.814 116.319L349.251 121.943Z" fill="black"/>
<path d="M391.799 261.536L390.703 262.987C390.703 262.987 398.645 304.949 396.448 314.479C396.074 316.196 395.861 317.948 395.811 319.709V319.785C395.423 329.481 398.205 342.064 398.205 342.064C398.205 342.064 400.426 379.153 399.162 394.407H250.448C249.577 371.851 248.638 342.628 249.49 339.388C250.927 334.041 253.799 314.645 253.799 314.645L254.115 305.453C254.115 305.453 254.115 296.569 254.374 286.672C254.484 282.222 254.647 277.551 254.881 273.409C255.183 268.198 255.604 263.809 256.184 261.652C256.54 260.017 256.746 258.35 256.796 256.673C256.796 256.517 256.796 256.356 256.825 256.194C256.825 255.69 256.873 255.146 256.892 254.587C256.892 254.431 256.892 254.274 256.892 254.083C256.983 250.838 256.95 246.988 256.849 242.997C256.849 242.78 256.849 242.558 256.849 242.336C256.768 239.343 256.648 236.289 256.514 233.387C256.097 224.316 255.556 216.646 255.556 216.646L237.292 152.95L242.213 140.19L255.872 131.382L281.127 115.332C293.446 104.673 301.556 105.953 304.649 107.123C304.95 107.23 305.244 107.357 305.53 107.501C305.626 107.551 305.702 107.591 305.774 107.637C305.873 107.686 305.967 107.743 306.057 107.808C305.21 108.237 304.474 108.875 303.912 109.667C303.278 110.569 302.827 111.598 302.586 112.691C302.424 113.368 302.31 114.057 302.246 114.752C302.183 115.483 302.16 116.239 302.16 117C302.194 118.668 302.33 120.333 302.566 121.983C302.566 122.014 302.566 122.054 302.566 122.094C302.724 123.273 302.921 124.427 303.112 125.511C303.11 125.529 303.11 125.548 303.112 125.566C303.333 126.831 303.553 128 303.701 129.008C303.73 129.19 303.754 129.356 303.778 129.512C303.883 130.178 303.933 130.853 303.926 131.528C303.98 133.158 304.189 134.779 304.549 136.365C304.673 137.031 304.817 137.741 304.975 138.482C305.19 139.49 305.425 140.588 305.678 141.707C305.817 142.322 305.966 142.957 306.119 143.587C306.176 143.839 306.239 144.091 306.296 144.348L306.392 144.746C307.412 149.014 308.518 153.262 309.197 155.832C309.6 157.344 309.853 158.276 309.853 158.276C309.853 158.276 317.064 146.006 322.818 139.021C322.905 138.92 322.981 138.825 323.062 138.734C323.632 138.044 324.192 137.414 324.729 136.859C325.902 135.63 326.955 134.753 327.802 134.43C327.983 134.361 328.158 134.275 328.324 134.173C330.68 132.767 334.481 127.663 338.038 122.316C338.388 121.812 338.728 121.263 339.072 120.744C339.862 119.544 340.628 118.34 341.351 117.186C341.907 116.304 342.438 115.447 342.941 114.631C345.335 110.711 347.02 107.788 347.02 107.788L350.343 107.632L350.922 107.601H351.31L366.396 106.866C366.396 106.866 367.047 106.981 368.119 107.208C368.177 107.208 368.234 107.208 368.296 107.249C373.649 108.367 388.519 111.91 389.429 116.823C390.54 122.84 414.526 130.868 414.526 130.868C414.842 134.899 420.716 137.555 420.716 137.555C420.716 137.555 429.612 162.298 427.232 171.993C424.882 181.568 433.351 205.252 433.576 205.918L431.953 208.074L391.799 261.536Z" fill="#E8F5FF"/>
<path opacity="0.1" d="M345.526 84.8238C345.526 84.8238 360.21 80.4396 363.547 89.465C366.884 98.4903 374.348 134.939 374.348 134.939C374.348 134.939 354.967 138.784 349.888 134.939C346.908 132.657 343.22 131.642 339.561 132.097L328.602 139.953L325.365 138.946C325.365 138.946 342.898 111.512 346.709 102.189C350.52 92.8665 351.808 88.699 345.526 84.8238Z" fill="black"/>
<path d="M344.89 82.808C344.89 82.808 359.583 78.4239 362.934 87.4492C366.286 96.4745 373.735 132.924 373.735 132.924C373.735 132.924 354.359 136.769 349.275 132.924C346.297 130.642 342.611 129.626 338.953 130.081L327.984 137.938L324.748 136.93C324.748 136.93 342.28 109.496 346.091 100.173C349.902 90.8507 351.171 86.6933 344.89 82.808Z" fill="#E8F5FF"/>
<path opacity="0.1" d="M246.326 228.216C246.326 228.216 257.285 231.058 259.353 237.579C261.421 244.1 251.252 244.266 251.252 244.266C251.252 244.266 245.057 232.731 246.326 228.216Z" fill="black"/>
<path opacity="0.1" d="M287.145 276.362C287.145 276.362 260.306 334.207 266.501 339.725C272.696 345.243 287.145 276.362 287.145 276.362Z" fill="black"/>
<path opacity="0.1" d="M324.154 233.734C324.154 233.734 345.598 289.922 341.308 298.6C337.019 307.278 350.52 298.6 350.52 298.6L324.154 233.734Z" fill="black"/>
<path d="M354.015 289.237C354.015 289.237 281.587 292.916 302.715 316.656C323.843 340.396 367.2 317.663 367.2 317.663L354.015 289.237Z" fill="#FFB0B1"/>
<path opacity="0.1" d="M343.535 63.5428C343.541 69.0105 342.521 74.4256 340.533 79.477C339.867 79.5576 339.202 79.608 338.56 79.6382C337.603 77.426 338.115 74.8711 338.134 72.4371C338.153 70.0031 337.301 67.1408 335.075 66.4857C330.637 65.1705 327.573 73.9035 323.197 72.3262C319.845 71.1269 320.721 65.7752 318.792 62.6861C317.265 60.2421 314.205 59.5517 311.826 58.0197C306.765 54.7492 306.919 49.5185 304.568 44.5699C302.107 39.3845 296.908 40.9164 292.393 43.9753C288.965 46.3034 286.006 49.4227 282.339 51.2772C279.165 52.8897 275.598 53.4743 272.079 53.56C269.912 53.6483 267.745 53.4073 265.644 52.8444C268.116 43.0651 273.882 34.5658 281.868 28.9314C289.854 23.297 299.514 20.9121 309.047 22.2216C318.58 23.5311 327.336 28.4455 333.68 36.0484C340.025 43.6512 343.526 53.4235 343.53 63.5428H343.535Z" fill="black"/>
<path d="M292.407 42.64C288.974 44.9681 286.02 48.0824 282.353 49.9469C279.179 51.5545 275.612 52.139 272.093 52.2247C267.784 52.3255 263.145 51.5293 260.201 48.2537C257.496 45.2302 256.849 40.5789 257.993 36.613C259.138 32.6471 261.881 29.3565 265.103 26.9729C268.325 24.5893 272.064 22.9415 274.2 19.5299C275.33 17.7258 275.875 15.5992 276.814 13.6793C279.816 7.53641 286.566 4.21048 293.092 3.79726C299.617 3.38404 306.086 5.42999 312.3 7.64727C318.514 9.86455 324.777 12.3036 331.336 12.7621C334.256 12.9536 337.292 12.7621 340.001 13.9262C343.645 15.4833 346.034 19.2074 347.662 22.9969C349.486 27.2702 350.62 31.9366 350.429 36.6029C350.027 46.5656 343.774 56.3418 346.522 65.8862C347.25 68.431 348.614 71.0414 347.887 73.5862C346.824 77.3001 342.271 78.1467 338.589 78.3231C337.631 76.1109 338.144 73.5509 338.163 71.122C338.182 68.6931 337.33 65.8257 335.108 65.1706C330.665 63.8654 327.601 72.5834 323.235 71.0111C319.908 69.8067 320.769 64.4601 318.835 61.371C317.308 58.9219 314.244 58.2366 311.869 56.7046C306.809 53.4341 306.962 48.2034 304.611 43.2548C302.131 38.0442 296.927 39.5761 292.407 42.64Z" fill="#575A89"/>
<path d="M222.177 234.399L218.524 235.74C218.524 235.74 219.96 258.477 215.172 264.998C210.385 271.519 230.895 287.73 230.895 287.73C230.895 287.73 259.008 287.564 259.803 285.21C260.598 282.857 258.367 243.082 258.367 243.082C258.367 243.082 243.276 236.894 244.545 227.032C244.545 227.032 239.939 250.268 233.112 249.265C226.285 248.263 218.533 242.261 222.177 234.399Z" fill="#E8F5FF"/>
<path opacity="0.1" d="M234.361 256.3C239.684 256.3 243.999 252.147 243.999 247.023C243.999 241.899 239.684 237.746 234.361 237.746C229.039 237.746 224.724 241.899 224.724 247.023C224.724 252.147 229.039 256.3 234.361 256.3Z" fill="black"/>
<path d="M244.899 235.07C244.899 235.07 242.984 173.55 226.313 187.257C209.643 200.964 209.48 217.357 212.654 222.199C215.829 227.042 226.007 251.286 226.007 251.286C227.599 252.257 229.387 252.818 231.225 252.921C233.062 253.025 234.897 252.669 236.579 251.882C238.26 251.095 239.741 249.901 240.899 248.396C242.058 246.89 242.861 245.118 243.243 243.223L244.899 235.07Z" fill="#FFB0B1"/>
<path opacity="0.1" d="M348.892 79.2402C348.814 78.9699 348.665 78.7286 348.461 78.5448C347.637 77.7536 345.866 77.4764 343.194 77.7183L343.305 79.0487C346.867 78.7262 347.57 79.472 347.661 79.598V79.724L347.771 79.8903C348.216 80.5185 348.53 81.2375 348.695 82.0011C348.86 82.7648 348.872 83.5562 348.729 84.3248C347.949 88.4318 343.156 91.7023 343.108 91.7376L342.993 91.8082L342.922 91.9241C340.853 95.1542 329.157 104.27 326.098 106.629L325.83 106.306C324.46 107.556 312.424 118.647 311.773 122.895C311.352 125.561 308.498 126.594 307.464 126.882C306.373 126.01 302.83 123.042 300.986 119.716C299.258 116.586 306.215 110.479 306.827 108.095L305.87 107.062C305.769 107.445 296.836 116.234 299.32 120.724C301.312 124.327 304.951 127.411 306.224 128.429C305.817 132.319 303.285 155.162 299.392 160.574C294.557 167.302 290.492 201.206 290.942 213.043C291.339 223.56 288.73 243.425 280.017 251.956C278.508 253.498 276.688 254.661 274.693 255.359C272.697 256.057 270.578 256.272 268.493 255.988H268.387H268.282C268.157 255.988 255.518 257.348 244.899 247.925C236.209 240.23 231.288 227.672 230.263 210.589H230.052L229.966 205.615C232.322 205.228 234.444 203.895 235.886 201.896C237.328 199.897 237.977 197.387 237.698 194.894C237.419 192.402 236.232 190.12 234.388 188.529C232.544 186.937 230.186 186.16 227.809 186.361C225.432 186.561 223.221 187.724 221.642 189.604C220.062 191.484 219.236 193.935 219.337 196.443C219.439 198.951 220.46 201.319 222.185 203.051C223.911 204.783 226.208 205.744 228.592 205.731H228.698L228.784 210.675L228.362 210.705C229.416 228.342 234.586 241.389 243.683 249.447C250.597 255.477 259.429 258.519 268.392 257.958C269.028 258.031 269.667 258.068 270.307 258.069C274.416 258.091 278.369 256.418 281.319 253.408C290.497 244.413 293.288 223.817 292.852 212.942C292.373 200.399 296.639 167.715 300.919 161.763C305.113 155.923 307.656 133.165 308.101 128.756C309.619 128.308 313.051 126.892 313.635 123.213C314.057 120.552 322.095 112.353 327.041 107.813L326.892 107.631C329.554 105.586 337.832 99.1353 341.935 94.993C343.209 93.708 344.473 92.4229 345.794 91.1984C347.384 89.7168 349.404 87.3635 349.936 84.5818C350.117 83.6636 350.118 82.7161 349.938 81.7975C349.759 80.8789 349.403 80.0086 348.892 79.2402Z" fill="black"/>
<path d="M306.062 128.111C305.86 127.965 301.092 124.372 298.703 120.048C296.223 115.558 305.157 106.775 305.252 106.392L306.21 107.425C305.602 109.803 298.645 115.916 300.374 119.04C302.552 122.986 307.139 126.438 307.187 126.473L306.062 128.111Z" fill="#353146"/>
<path d="M325.476 107.606L324.729 106.523C324.882 106.407 339.92 94.9578 342.29 91.2539L342.366 91.143L342.477 91.0675C342.524 91.0322 347.317 87.7667 348.097 83.6547C348.241 82.8869 348.23 82.0959 348.065 81.3329C347.9 80.5699 347.585 79.8518 347.14 79.2252L347.03 79.0538V78.9329C346.934 78.8019 346.23 78.0611 342.668 78.3836L342.558 77.0482C345.234 76.8063 347.001 77.0835 347.824 77.8746C348.029 78.0603 348.18 78.3031 348.26 78.5751C348.778 79.3413 349.141 80.211 349.327 81.1305C349.513 82.0501 349.518 83 349.342 83.9218C348.811 86.7085 346.795 89.0618 345.201 90.5383C343.884 91.7629 342.615 93.058 341.347 94.3329C336.535 99.1857 326.002 107.208 325.476 107.606Z" fill="#E8F5FF"/>
<path d="M229.348 203.861L228.08 203.885L228.221 212.002L229.49 211.978L229.348 203.861Z" fill="#E8F5FF"/>
<path d="M227.975 205.091C233.091 205.091 237.239 200.725 237.239 195.34C237.239 189.955 233.091 185.589 227.975 185.589C222.858 185.589 218.711 189.955 218.711 195.34C218.711 200.725 222.858 205.091 227.975 205.091Z" fill="#587EEC"/>
<path d="M227.975 203.438C232.224 203.438 235.669 199.813 235.669 195.34C235.669 190.868 232.224 187.242 227.975 187.242C223.726 187.242 220.281 190.868 220.281 195.34C220.281 199.813 223.726 203.438 227.975 203.438Z" fill="#E8F5FF"/>
<path d="M269.704 257.419C269.064 257.42 268.425 257.385 267.789 257.313C258.826 257.869 249.996 254.827 243.08 248.802C233.983 240.739 228.822 227.707 227.759 210.055L229.674 209.929C230.699 227.012 235.621 239.575 244.315 247.265C254.934 256.663 267.569 255.328 267.693 255.328H267.798H267.904C269.99 255.611 272.109 255.395 274.105 254.697C276.101 253.999 277.922 252.837 279.432 251.296C288.141 242.765 290.75 222.9 290.353 212.383C289.874 200.536 293.939 166.631 298.779 159.909C303.016 154.018 305.645 127.466 305.674 127.199L305.745 126.443L306.454 126.312C306.497 126.312 310.634 125.486 311.151 122.23C311.821 117.987 323.838 106.896 325.202 105.641L326.452 107.153C321.487 111.688 313.449 119.892 313.047 122.558C312.462 126.247 309.03 127.658 307.517 128.101C307.038 132.515 304.515 155.268 300.335 161.108C296.055 167.06 291.789 199.744 292.268 212.287C292.68 223.162 289.917 243.762 280.739 252.752C277.784 255.77 273.821 257.446 269.704 257.419Z" fill="#353146"/>
<g opacity="0.1">
<path opacity="0.1" d="M347.614 51.63C348.399 48.5762 349.347 45.5022 350.007 42.4081C349.217 45.5173 348.265 48.5762 347.614 51.63Z" fill="black"/>
<path opacity="0.1" d="M339.604 75.627C338.646 73.4148 339.159 70.8549 339.178 68.4259C339.197 65.997 338.345 63.1548 336.123 62.4745C331.68 61.1694 328.616 69.8923 324.25 68.3151C320.898 67.1107 321.784 61.764 319.85 58.6749C318.323 56.2258 315.263 55.5405 312.889 54.0086C307.823 50.7381 307.977 45.5073 305.631 40.5587C303.165 35.3683 297.97 36.9002 293.451 39.9641C290.018 42.2922 287.064 45.4115 283.397 47.271C280.222 48.8786 276.656 49.4631 273.137 49.5488C268.852 49.6546 264.189 48.8534 261.244 45.5778C258.975 43.0582 258.156 39.3644 258.625 35.9024C258.544 36.1393 258.472 36.3761 258.4 36.613C257.251 40.5789 257.922 45.2402 260.607 48.2537C263.552 51.5292 268.215 52.3254 272.5 52.2246C276.024 52.139 279.586 51.5544 282.765 49.9469C286.442 48.0824 289.396 44.9681 292.819 42.6399C297.338 39.5761 302.538 38.0441 304.999 43.2346C307.345 48.1832 307.196 53.4139 312.257 56.6844C314.651 58.1962 317.691 58.9017 319.223 61.3508C321.138 64.4499 320.29 69.7865 323.623 70.9909C327.984 72.5632 331.048 63.8452 335.491 65.1504C337.713 65.8055 338.57 68.6779 338.546 71.1018C338.522 73.5257 338.024 76.0907 338.972 78.3029C342.654 78.1265 347.207 77.295 348.274 73.566C348.421 73.0308 348.489 72.475 348.475 71.9181C346.919 74.7452 342.917 75.4708 339.604 75.627Z" fill="black"/>
</g>
<path opacity="0.1" d="M426.131 199.795L431.69 205.983C431.69 205.983 436.138 240.084 438.359 243.274C440.581 246.464 445.828 259.152 440.901 268.682C440.901 268.682 439.312 273.867 440.265 276.039C441.217 278.211 433.121 289.081 433.121 289.081C433.121 289.081 422.478 299.109 420.252 300.616C418.026 302.122 406.277 314.156 402.308 314.322C398.339 314.489 397.042 319.674 397.042 319.674L374.645 320.511C374.645 320.511 362.273 319.83 359.583 321.67C359.583 321.67 361.019 301.775 347.197 288.733L364.825 282.046C364.825 282.046 371.499 279.022 373.563 275.863C374.861 273.926 376.702 272.465 378.829 271.685C378.829 271.685 383.751 268.006 383.909 266.001C384.067 263.995 389.927 261.536 389.927 261.536L386.609 231.729L388.357 182.243C388.357 182.243 393.915 140.78 405.669 143.123C417.423 145.466 426.131 199.795 426.131 199.795Z" fill="black"/>
<path d="M428.046 199.795L433.605 205.983C433.605 205.983 438.053 240.084 440.274 243.274C442.495 246.464 447.743 259.152 442.816 268.682C442.816 268.682 441.232 273.867 442.184 276.039C443.137 278.211 435.036 289.081 435.036 289.081C435.036 289.081 424.393 299.109 422.167 300.616C419.941 302.122 408.192 314.156 404.223 314.322C400.254 314.489 398.956 319.674 398.956 319.674L376.56 320.511C376.56 320.511 364.179 319.83 361.498 321.67C361.498 321.67 362.934 301.775 349.112 288.733L366.74 282.046C366.74 282.046 373.414 279.022 375.478 275.863C376.776 273.926 378.617 272.465 380.744 271.685C380.744 271.685 385.666 268.006 385.824 266.001C385.982 263.995 391.842 261.536 391.842 261.536L388.524 231.729L390.272 182.243C390.272 182.243 395.83 140.78 407.584 143.123C419.338 145.466 428.046 199.795 428.046 199.795Z" fill="#E8F5FF"/>
<path opacity="0.1" d="M407.383 249.784C407.383 249.784 423.742 245.249 428.032 250.792C432.322 256.336 407.383 249.784 407.383 249.784Z" fill="black"/>
<path opacity="0.1" d="M403.572 257.389C409.13 261.486 426.284 261.652 426.284 261.652L403.572 257.389Z" fill="black"/>
<path opacity="0.1" d="M411.989 277.868C412.467 278.035 423.781 290.744 428.53 286.899C433.279 283.054 411.989 277.868 411.989 277.868Z" fill="black"/>
<path opacity="0.1" d="M259.626 171.207C259.626 171.207 262.949 195.285 261.311 205.091C259.674 214.898 265.649 227.047 265.649 227.047L259.626 171.207Z" fill="black"/>
<path d="M186.068 180.998C182.238 184.158 179.442 191.636 177.417 199.855C173.884 214.192 172.73 230.817 172.73 230.817C172.73 230.817 142.233 223.459 144.454 220.118C145.852 218.017 143.975 202.183 142.41 190.704C141.476 183.921 140.643 178.655 140.643 178.655C140.643 178.655 196.553 172.301 186.068 180.998Z" fill="#FFB0B1"/>
<path opacity="0.1" d="M186.068 180.328C182.238 183.493 179.442 190.966 177.417 199.185C171.341 201.127 164.879 201.302 158.715 199.692C152.552 198.082 146.918 194.746 142.41 190.039C141.476 183.251 140.643 177.985 140.643 177.985C140.643 177.985 196.553 171.635 186.068 180.328Z" fill="black"/>
<path d="M202.461 162.318C202.464 171.083 199.521 179.566 194.153 186.267C188.785 192.967 181.338 197.453 173.13 198.93C164.922 200.407 156.482 198.78 149.304 194.337C142.126 189.894 136.672 182.921 133.909 174.653C131.146 166.385 131.25 157.354 134.205 149.159C137.159 140.965 142.772 134.134 150.051 129.877C157.33 125.619 165.805 124.21 173.977 125.897C182.148 127.584 189.489 132.26 194.7 139.097C199.722 145.682 202.46 153.873 202.461 162.318Z" fill="#FFB0B1"/>
<path opacity="0.1" d="M230.268 394.407H220.214L219.366 375.716L218.481 356.37C218.481 356.37 220.764 356.012 224.403 355.478L225.873 355.271H225.992C226.787 359.197 227.572 363.229 228.329 367.255C229.588 374.403 230.243 381.654 230.287 388.924C230.287 389.428 230.287 389.932 230.287 390.405C230.316 391.751 230.287 393.096 230.268 394.407Z" fill="black"/>
<path d="M228.339 394.407H102.251C102.796 393.101 103.16 392.31 103.16 392.31C103.16 392.31 113.248 345.858 118.376 326.205C118.377 326.188 118.377 326.171 118.376 326.155C119.016 323.485 119.79 320.852 120.693 318.268C120.751 318.092 120.826 317.924 120.918 317.764C123.455 313.42 126.634 308.739 122.186 302.052C117.739 295.365 119.314 265.94 119.314 265.94C119.314 265.94 124.714 240.86 130.431 227.486C131.298 225.414 132.53 223.533 134.06 221.942C134.557 221.43 135.089 220.955 135.649 220.521C136.076 220.184 136.52 219.873 136.98 219.589L137.071 219.529C139.473 218.096 142.139 217.224 144.89 216.974C146.843 216.759 148.815 216.816 150.754 217.145C160.023 218.576 167.444 220.97 173.343 223.696C189.329 231.089 194.169 240.996 194.265 241.203L194.303 241.288C194.945 242.865 204.328 265.925 207.709 276.684C208.585 279.486 209.063 281.456 208.872 281.995C207.914 284.666 216.178 318.102 216.178 318.102C216.178 318.102 220.008 334.228 223.838 353.13C224.006 353.916 224.164 354.702 224.317 355.498C225.002 358.93 225.681 362.427 226.337 365.92C227.608 373.117 228.263 380.419 228.295 387.74C228.366 390.021 228.38 392.243 228.339 394.407Z" fill="#EB5569"/>
<path opacity="0.1" d="M144.138 205.474C144.138 205.474 135.439 201.947 135.544 207.298C135.649 212.65 137.665 215.21 137.028 215.991C136.392 216.772 137.344 221.454 137.344 221.454C137.344 221.454 149.098 221.454 154.498 224.014C159.899 226.574 179.806 231.703 182.348 233.266C184.891 234.828 194.317 241.832 194.317 241.832L195.165 228.569C195.165 228.569 185.422 220.098 169.436 215.754C153.45 211.41 144.138 205.474 144.138 205.474Z" fill="black"/>
<path d="M144.138 204.804C144.138 204.804 135.439 201.276 135.544 206.628C135.649 211.98 137.665 214.54 137.028 215.321C136.392 216.102 137.344 220.783 137.344 220.783C137.344 220.783 149.098 220.783 154.498 223.348C159.899 225.913 179.806 231.038 182.348 232.595C184.891 234.153 194.317 241.162 194.317 241.162L195.174 227.939C195.174 227.939 185.432 219.468 169.446 215.124C153.46 210.78 144.138 204.804 144.138 204.804Z" fill="#EB5569"/>
<path opacity="0.1" d="M170.398 236.723C170.398 236.723 187.021 255.665 186.174 260.911C185.326 266.157 170.398 236.723 170.398 236.723Z" fill="black"/>
<path opacity="0.1" d="M143.396 305.151C143.396 305.151 131.211 316.968 127.621 317.638C124.03 318.309 130.373 320.536 134.5 318.757C138.627 316.978 147.427 312.297 147.427 312.297L143.396 305.151Z" fill="black"/>
<path d="M233.289 394.407H204.874C200.9 390.778 197.142 387.417 194.748 385.396C190.918 382.161 188.156 377.399 186.394 373.569C185.996 372.697 185.652 371.881 185.36 371.14C184.837 369.864 184.376 368.561 183.981 367.235L205.023 354.082C206.185 355.123 207.278 356.248 208.292 357.449L208.546 357.756C209.714 359.207 210.744 360.855 210.835 362.206C210.94 363.778 215.096 369.86 219.342 375.701C223.651 381.642 228.066 387.321 228.358 387.704C228.358 387.704 229.085 388.748 230.273 390.35C231.11 391.509 232.145 392.9 233.289 394.407Z" fill="#FFB0B1"/>
<path opacity="0.1" d="M194.701 139.097C193.69 141.495 192.785 143.985 192.651 146.656C192.273 154.366 192.886 171.605 184.776 175.475C180.759 177.38 176.46 173.198 172.055 173.097C168.885 173.026 165.979 175.143 164.045 177.788C162.111 180.434 160.909 183.573 159.506 186.567C158.229 189.284 156.759 191.895 155.107 194.378C154.613 195.137 154.069 195.86 153.479 196.539C148.533 194.343 144.13 190.987 140.603 186.728C137.076 182.469 134.52 177.419 133.129 171.962C131.737 166.506 131.548 160.787 132.574 155.241C133.601 149.696 135.816 144.47 139.052 139.963C142.288 135.455 146.459 131.784 151.247 129.23C156.034 126.676 161.313 125.306 166.68 125.225C172.047 125.143 177.361 126.352 182.217 128.76C187.073 131.167 191.342 134.71 194.701 139.117V139.097Z" fill="black"/>
<path d="M192.015 145.295C191.632 153.005 192.249 170.244 184.134 174.11C180.117 176.014 175.818 171.837 171.413 171.736C168.244 171.66 165.343 173.782 163.404 176.423C161.465 179.063 160.272 182.208 158.865 185.206C157.588 187.923 156.117 190.534 154.465 193.017C153.479 194.488 152.387 195.965 150.869 196.791C148.227 198.243 145.024 197.426 142.189 196.494C138.512 195.274 134.89 193.9 131.321 192.372C131.403 191.805 131.445 191.232 131.446 190.659C131.341 190.87 131.226 191.067 131.111 191.278L130.886 191.692C130.479 192.447 130.081 193.203 129.718 193.979C129.579 194.277 129.445 194.584 129.325 194.892C128.843 196.035 128.541 197.254 128.43 198.5C128.185 201.861 129.761 205.051 131.159 208.074C136.535 219.77 139.858 233.447 135.812 245.718C134.06 251.054 131.025 255.796 128.808 260.951C124.933 270.082 123.792 280.238 125.538 290.068C126.644 296.176 128.861 302.223 128.315 308.416C127.357 319.074 118.625 327.006 109.877 332.459C105.152 335.392 99.3685 338.002 94.3511 335.684C97.5492 331.753 98.3727 326.316 99.0621 321.186C100.948 307.193 102.84 293.194 104.736 279.188C105.492 273.615 106.247 268.042 107 262.468C108.408 251.997 109.834 241.409 108.953 230.872C108.312 223.106 106.502 214.862 109.7 207.832C111.39 204.108 114.402 201.024 115.34 197.013C116.111 193.753 115.393 190.286 115.9 186.965C116.178 185.454 116.648 183.989 117.298 182.611C118.126 180.74 119.206 179.006 120.506 177.461C119.223 177.068 118.026 176.528 117.298 175.4C119.357 173.989 119.668 170.809 118.735 168.42C117.801 166.032 115.934 164.212 114.253 162.328C112.573 160.443 110.955 158.246 110.744 155.676C110.337 150.783 114.981 146.993 115.8 142.166C116.628 137.252 113.353 132.475 113.617 127.501C113.923 121.489 119.17 117.12 124.351 114.586C132.168 110.777 140.803 109.212 149.38 110.05C156.361 110.746 163.116 113.018 170.078 113.9C174.276 114.404 178.533 114.455 182.703 115.231C186.873 116.007 191.052 117.644 193.987 120.865C201.724 129.356 192.455 136.345 192.015 145.295Z" fill="#575A89"/>
<path opacity="0.1" d="M185.541 373.574C183.1 372.46 178.657 373.126 171.03 370.682C163.403 368.238 161.934 357.191 161.934 357.191V357.156C161.843 356.904 161.134 355.261 156.337 349.507C151.037 343.152 139.58 311.057 139.58 311.057C139.58 311.057 129.42 299.572 129.741 295.339C130.062 291.106 127.936 279.844 128.147 267.245C128.358 254.647 151.018 246.292 151.018 246.292C194.648 238.154 184.373 291.096 183.21 295.108C182.046 299.119 188.084 309.953 188.084 309.953C187.232 314.67 191.579 321.972 191.579 321.972C191.579 321.972 192.632 328.432 192.847 330.886C192.859 331 192.884 331.111 192.919 331.219C193.618 333.532 199.316 335.628 201.633 336.903C204.07 338.244 211.907 349.945 211.907 349.945C213.597 358.537 187.974 374.703 185.541 373.574Z" fill="black"/>
<path d="M186.81 371.558C184.374 370.44 179.926 371.11 172.304 368.661C164.682 366.212 163.207 355.176 163.207 355.176V355.14C163.121 354.883 162.408 353.246 157.61 347.491C152.311 341.136 140.854 309.036 140.854 309.036C140.854 309.036 130.694 297.557 131.01 293.324C131.326 289.091 129.21 277.828 129.421 265.24C129.631 252.652 152.277 244.302 152.277 244.302C195.907 236.163 185.633 289.106 184.469 293.117C183.306 297.128 189.343 307.963 189.343 307.963C188.491 312.679 192.838 319.981 192.838 319.981C192.838 319.981 193.891 326.442 194.112 328.896C194.12 329.009 194.142 329.121 194.179 329.228C194.878 331.542 200.575 333.638 202.897 334.913C205.329 336.248 213.171 347.954 213.171 347.954C214.871 356.531 189.247 372.697 186.81 371.558Z" fill="#EB5569"/>
<path opacity="0.1" d="M153.139 271.942C153.139 271.942 172.198 293.107 177.173 293.107C182.147 293.107 153.139 271.942 153.139 271.942Z" fill="black"/>
<path d="M186.81 371.558C184.373 370.44 179.926 371.11 172.304 368.661C164.682 366.212 163.207 355.176 163.207 355.176V355.141C168.258 351.613 181.051 341.65 186.092 338.007C189.64 335.452 192.536 331.698 194.231 329.208C194.93 331.521 200.627 333.618 202.949 334.893C205.382 336.228 213.224 347.934 213.224 347.934C214.871 356.531 189.247 372.697 186.81 371.558Z" fill="#FF748E"/>
<g opacity="0.1">
<path opacity="0.1" d="M117.327 175.455C117.351 175.495 117.384 175.531 117.413 175.571C117.557 175.379 117.705 175.188 117.858 175.007C117.695 175.174 117.517 175.324 117.327 175.455Z" fill="black"/>
<path opacity="0.1" d="M128.434 198.555C128.636 195.758 130.057 193.294 131.388 190.835C130.517 190.482 129.646 190.124 128.784 189.752C128.866 189.186 128.908 188.615 128.908 188.043C127.563 190.563 126.098 193.042 125.892 195.879C125.648 199.246 127.223 202.43 128.621 205.454C134.002 217.145 137.32 230.822 133.275 243.097C131.518 248.429 128.487 253.176 126.27 258.331C122.397 267.46 121.258 277.615 123.005 287.443C124.102 293.556 126.323 299.598 125.777 305.791C124.82 316.449 116.092 324.381 107.34 329.828C103.764 332.056 99.584 334.097 95.5863 333.95C95.2162 334.577 94.8034 335.175 94.3511 335.739C99.3733 338.073 105.152 335.447 109.877 332.504C118.634 327.062 127.381 319.15 128.339 308.472C128.884 302.279 126.663 296.236 125.562 290.124C123.814 280.297 124.95 270.143 128.817 261.012C131.02 255.862 134.084 251.11 135.822 245.778C139.867 233.503 136.545 219.826 131.168 208.135C129.775 205.091 128.19 201.921 128.434 198.555Z" fill="black"/>
<path opacity="0.1" d="M193.977 120.925C193.507 120.417 193.001 119.945 192.465 119.514C198.267 127.436 189.889 134.168 189.472 142.695C189.099 150.405 189.712 167.649 181.597 171.509C177.584 173.419 173.28 169.237 168.881 169.136C165.706 169.065 162.805 171.187 160.866 173.827C158.927 176.468 157.735 179.612 156.332 182.606C155.052 185.322 153.58 187.933 151.927 190.417C150.97 191.893 149.85 193.365 148.327 194.196C145.694 195.642 142.491 194.831 139.652 193.894C136.891 192.98 134.156 191.972 131.446 190.87C131.44 191.395 131.399 191.919 131.321 192.437C134.893 193.969 138.517 195.343 142.194 196.559C145.028 197.497 148.231 198.308 150.869 196.862C152.387 196.03 153.488 194.554 154.47 193.077C156.123 190.597 157.594 187.988 158.869 185.272C160.277 182.278 161.464 179.129 163.408 176.488C165.352 173.847 168.249 171.731 171.418 171.802C175.823 171.902 180.127 176.085 184.139 174.175C192.254 170.315 191.636 153.071 192.014 145.36C192.455 136.396 201.724 129.411 193.977 120.925Z" fill="black"/>
</g>
<path opacity="0.1" d="M130.89 191.697C130.484 192.453 130.086 193.208 129.722 193.984C129.583 194.282 129.449 194.589 129.33 194.897C126.821 192.236 120.712 185.912 117.303 183.951C118.132 182.081 119.212 180.347 120.511 178.801C120.511 178.801 128.635 183.321 130.89 191.697Z" fill="black"/>
<path d="M131.115 191.284C129.234 182.319 120.511 177.466 120.511 177.466C119.211 179.011 118.131 180.745 117.303 182.616C120.899 184.687 127.525 191.631 129.722 193.985L131.115 191.284Z" fill="#EB5569"/>
<defs>
<linearGradient id="paint0_linear_4_6" x1="349.514" y1="48.0723" x2="349.514" y2="38.8101" gradientUnits="userSpaceOnUse">
<stop stop-color="#808080" stop-opacity="0.25"/>
<stop offset="0.54" stop-color="#808080" stop-opacity="0.12"/>
<stop offset="1" stop-color="#808080" stop-opacity="0.1"/>
</linearGradient>
<linearGradient id="paint1_linear_4_6" x1="219645" y1="331838" x2="219645" y2="23136.5" gradientUnits="userSpaceOnUse">
<stop stop-color="#808080" stop-opacity="0.25"/>
<stop offset="0.54" stop-color="#808080" stop-opacity="0.12"/>
<stop offset="1" stop-color="#808080" stop-opacity="0.1"/>
</linearGradient>
</defs>
</svg>
